<mxfile host="app.diagrams.net" agent="Mozilla/5.0 (Windows NT 10.0; Win64; x64) AppleWebKit/537.36 (KHTML, like Gecko) Chrome/135.0.0.0 Safari/537.36" version="27.0.2">
  <diagram name="Página-1" id="sw940wxHK6NHWI3kgmaV">
    <mxGraphModel dx="679" dy="358" grid="1" gridSize="10" guides="1" tooltips="1" connect="1" arrows="1" fold="1" page="1" pageScale="1" pageWidth="827" pageHeight="1169" math="0" shadow="0">
      <root>
        <mxCell id="0" />
        <mxCell id="1" parent="0" />
        <mxCell id="h9C4DT9fEZDkmeFofVGl-1" value="María Cristina" style="shape=umlActor;verticalLabelPosition=bottom;verticalAlign=top;html=1;outlineConnect=0;" parent="1" vertex="1">
          <mxGeometry x="150" y="140" width="30" height="60" as="geometry" />
        </mxCell>
        <mxCell id="h9C4DT9fEZDkmeFofVGl-4" value="" style="rounded=0;whiteSpace=wrap;html=1;fillColor=none;" parent="1" vertex="1">
          <mxGeometry x="220" y="50" width="400" height="360" as="geometry" />
        </mxCell>
        <mxCell id="h9C4DT9fEZDkmeFofVGl-5" value="SUBE UN TRABAJO" style="ellipse;whiteSpace=wrap;html=1;" parent="1" vertex="1">
          <mxGeometry x="340" y="90" width="90" height="50" as="geometry" />
        </mxCell>
        <mxCell id="h9C4DT9fEZDkmeFofVGl-7" value="CORRIGE TRABAJOS" style="ellipse;whiteSpace=wrap;html=1;" parent="1" vertex="1">
          <mxGeometry x="340" y="170" width="90" height="50" as="geometry" />
        </mxCell>
        <mxCell id="h9C4DT9fEZDkmeFofVGl-8" value="SUBE APUNTES" style="ellipse;whiteSpace=wrap;html=1;" parent="1" vertex="1">
          <mxGeometry x="530" y="90" width="90" height="50" as="geometry" />
        </mxCell>
        <mxCell id="h9C4DT9fEZDkmeFofVGl-9" value="PONE FALTAS" style="ellipse;whiteSpace=wrap;html=1;" parent="1" vertex="1">
          <mxGeometry x="530" y="170" width="90" height="50" as="geometry" />
        </mxCell>
        <mxCell id="h9C4DT9fEZDkmeFofVGl-10" value="Aimar" style="shape=umlActor;verticalLabelPosition=bottom;verticalAlign=top;html=1;outlineConnect=0;" parent="1" vertex="1">
          <mxGeometry x="150" y="310" width="30" height="60" as="geometry" />
        </mxCell>
        <mxCell id="h9C4DT9fEZDkmeFofVGl-11" value="SUBE UN TRABAJO" style="ellipse;whiteSpace=wrap;html=1;" parent="1" vertex="1">
          <mxGeometry x="340" y="315" width="90" height="50" as="geometry" />
        </mxCell>
        <mxCell id="h9C4DT9fEZDkmeFofVGl-13" value="" style="endArrow=classic;html=1;rounded=0;" parent="1" source="h9C4DT9fEZDkmeFofVGl-10" target="h9C4DT9fEZDkmeFofVGl-11" edge="1">
          <mxGeometry width="50" height="50" relative="1" as="geometry">
            <mxPoint x="390" y="410" as="sourcePoint" />
            <mxPoint x="440" y="360" as="targetPoint" />
          </mxGeometry>
        </mxCell>
        <mxCell id="h9C4DT9fEZDkmeFofVGl-14" value="" style="endArrow=classic;html=1;rounded=0;entryX=0;entryY=0.5;entryDx=0;entryDy=0;" parent="1" source="h9C4DT9fEZDkmeFofVGl-1" target="h9C4DT9fEZDkmeFofVGl-7" edge="1">
          <mxGeometry width="50" height="50" relative="1" as="geometry">
            <mxPoint x="200" y="170" as="sourcePoint" />
            <mxPoint x="250" y="120" as="targetPoint" />
          </mxGeometry>
        </mxCell>
        <mxCell id="h9C4DT9fEZDkmeFofVGl-16" value="" style="endArrow=classic;html=1;rounded=0;exitX=1;exitY=0.3333333333333333;exitDx=0;exitDy=0;exitPerimeter=0;entryX=0;entryY=0.5;entryDx=0;entryDy=0;" parent="1" source="h9C4DT9fEZDkmeFofVGl-1" target="h9C4DT9fEZDkmeFofVGl-5" edge="1">
          <mxGeometry width="50" height="50" relative="1" as="geometry">
            <mxPoint x="390" y="410" as="sourcePoint" />
            <mxPoint x="440" y="360" as="targetPoint" />
          </mxGeometry>
        </mxCell>
        <mxCell id="h9C4DT9fEZDkmeFofVGl-18" value="" style="endArrow=classic;html=1;rounded=0;exitX=1;exitY=0.3333333333333333;exitDx=0;exitDy=0;exitPerimeter=0;entryX=0;entryY=0.5;entryDx=0;entryDy=0;" parent="1" source="h9C4DT9fEZDkmeFofVGl-1" target="h9C4DT9fEZDkmeFofVGl-8" edge="1">
          <mxGeometry width="50" height="50" relative="1" as="geometry">
            <mxPoint x="190" y="182" as="sourcePoint" />
            <mxPoint x="350" y="205" as="targetPoint" />
            <Array as="points">
              <mxPoint x="350" y="160" />
            </Array>
          </mxGeometry>
        </mxCell>
        <mxCell id="h9C4DT9fEZDkmeFofVGl-19" value="" style="endArrow=classic;html=1;rounded=0;entryX=0;entryY=0.5;entryDx=0;entryDy=0;exitX=1;exitY=0.3333333333333333;exitDx=0;exitDy=0;exitPerimeter=0;" parent="1" source="h9C4DT9fEZDkmeFofVGl-1" target="h9C4DT9fEZDkmeFofVGl-9" edge="1">
          <mxGeometry width="50" height="50" relative="1" as="geometry">
            <mxPoint x="200" y="192" as="sourcePoint" />
            <mxPoint x="360" y="215" as="targetPoint" />
            <Array as="points">
              <mxPoint x="350" y="260" />
            </Array>
          </mxGeometry>
        </mxCell>
      </root>
    </mxGraphModel>
  </diagram>
</mxfile>
